<svg width="51" height="51" viewBox="0 0 51 51" fill="none" xmlns="http://www.w3.org/2000/svg">
<circle cx="25.5" cy="25.5" r="25.5" fill="#FF8A00"/>
<path d="M25.825 16.55C27.6583 16.55 29.2667 16.9083 30.65 17.625C32.05 18.3417 33.125 19.3667 33.875 20.7C34.6417 22.0167 35.025 23.55 35.025 25.3C35.025 27.05 34.6417 28.5833 33.875 29.9C33.125 31.2 32.05 32.2083 30.65 32.925C29.2667 33.6417 27.6583 34 25.825 34H19.725V16.55H25.825ZM25.7 31.025C27.5333 31.025 28.95 30.525 29.95 29.525C30.95 28.525 31.45 27.1167 31.45 25.3C31.45 23.4833 30.95 22.0667 29.95 21.05C28.95 20.0167 27.5333 19.5 25.7 19.5H23.225V31.025H25.7Z" fill="white"/>
</svg>
